<?xml version="1.0" standalone="no"?>
<!DOCTYPE svg PUBLIC "-//W3C//DTD SVG 20010904//EN"
 "http://www.w3.org/TR/2001/REC-SVG-20010904/DTD/svg10.dtd">
<svg version="1.0" xmlns="http://www.w3.org/2000/svg"
 width="270.000000pt" height="270.000000pt" viewBox="0 0 270.000000 270.000000"
 preserveAspectRatio="xMidYMid meet">
<metadata>
Created by potrace 1.11, written by Peter Selinger 2001-2013
</metadata>
<g transform="translate(0.000000,270.000000) scale(0.100000,-0.100000)"
fill="#000000" stroke="none">
<path d="M0 1350 l0 -1350 1350 0 1350 0 0 1350 0 1350 -1350 0 -1350 0 0
-1350z m2266 1259 c19 -16 18 -49 -6 -120 -13 -37 -24 -108 -30 -183 -13 -183
-41 -352 -80 -481 -71 -238 -220 -406 -220 -249 0 24 7 61 15 81 44 116 70
352 60 553 -4 74 -12 141 -17 148 -8 9 -61 12 -204 12 l-193 0 -7 -37 c-6 -37
-13 -66 -34 -155 -17 -69 -77 -222 -121 -311 -53 -106 -181 -298 -225 -336
-19 -17 -34 -33 -34 -35 0 -15 116 -37 158 -31 26 4 206 7 400 6 290 0 360 2
389 14 49 21 85 19 111 -5 29 -28 28 -68 -5 -188 -26 -93 -27 -107 -27 -327 0
-188 4 -258 23 -382 20 -130 21 -155 9 -179 -7 -15 -20 -32 -29 -37 -23 -15
-67 15 -84 58 -8 18 -21 35 -30 39 -9 3 -103 11 -208 17 -205 12 -472 7 -590
-13 -66 -10 -76 -15 -113 -55 -45 -48 -62 -52 -89 -23 -19 22 -20 10 16 225
17 106 21 170 21 350 0 229 -9 290 -58 428 -20 57 -9 93 30 103 22 5 24 9 15
26 -9 16 1 44 59 156 115 228 181 457 182 634 l0 48 -62 -6 c-35 -4 -81 -13
-103 -20 -51 -18 -109 -18 -124 0 -16 19 -3 224 16 254 13 21 19 23 51 16 21
-4 102 -6 182 -4 186 6 521 5 675 0 95 -3 128 0 160 12 43 18 98 16 121 -3z
m-1639 -66 c45 -48 162 -226 210 -319 33 -63 36 -75 25 -98 -18 -40 -47 -32
-115 30 -102 92 -228 157 -330 169 -61 8 -83 27 -70 62 14 37 81 119 119 144
92 62 113 63 161 12z m295 -626 c13 -20 8 -60 -11 -104 -18 -39 -42 -142 -56
-243 -7 -53 -63 -172 -100 -214 -14 -16 -25 -38 -25 -48 0 -10 24 -42 53 -71
87 -85 114 -182 83 -307 -28 -113 -76 -194 -186 -320 -40 -45 -71 -82 -69 -84
15 -9 186 -89 234 -109 123 -51 203 -74 400 -117 43 -9 244 -42 360 -59 117
-17 338 -41 575 -61 190 -17 227 -23 243 -39 18 -17 18 -20 3 -50 -10 -18 -27
-33 -43 -37 -37 -10 -515 13 -768 37 -448 41 -710 92 -932 180 -97 39 -208 59
-331 59 -99 0 -103 1 -114 24 -9 20 -7 32 8 63 30 59 89 146 116 171 34 31 87
38 126 18 30 -16 31 -16 60 19 15 19 44 68 64 108 114 231 88 366 -92 465 -89
49 -93 104 -11 182 27 25 60 64 74 86 24 38 57 141 57 177 0 34 -211 25 -285
-13 -87 -45 -99 -27 -93 136 4 111 7 128 26 147 20 19 25 20 54 8 59 -24 130
-32 185 -20 30 6 87 8 130 4 62 -5 92 -2 143 14 66 19 109 19 122 -2z"/>
<path d="M1435 1231 l-70 -6 -3 -40 c-9 -145 -49 -384 -73 -444 -6 -13 -6 -27
-2 -31 4 -3 62 -3 128 1 66 4 231 8 366 8 l246 1 -9 43 c-26 127 -39 201 -49
277 -6 47 -14 108 -17 135 l-7 50 -70 6 c-85 8 -344 8 -440 0z"/>
</g>
</svg>
